<svg xmlns="http://www.w3.org/2000/svg" viewBox="0 0 64 64">
  <rect width="64" height="64" rx="16" fill="#0b1220" />
  <path d="M19 24c0-7.2 5.8-13 13-13s13 5.8 13 13v4h3c3.9 0 7 3.1 7 7s-3.1 7-7 7h-2.8c-2.1 6.5-8.2 11-15.2 11s-13.1-4.5-15.2-11H13c-3.9 0-7-3.1-7-7s3.1-7 7-7h3v-4Z" fill="#f8fafc"/>
  <circle cx="26" cy="29" r="3" fill="#0b1220"/>
  <circle cx="38" cy="29" r="3" fill="#0b1220"/>
  <path d="M25 38c1.8 2.3 4.1 3.5 7 3.5s5.2-1.2 7-3.5" fill="none" stroke="#0b1220" stroke-linecap="round" stroke-width="3"/>
  <path d="M17 18 9 12M47 18l8-6M12 46l8-4M44 42l10 4" fill="none" stroke="#f59e0b" stroke-linecap="round" stroke-width="4"/>
</svg>
